HIERARCHY
ROOT Hips
{
	OFFSET -0.001795 -0.223333 0.028219
	CHANNELS 6 Xposition Yposition Zposition Zrotation Yrotation Xrotation 
	JOINT LeftUpLeg
	{
		OFFSET 0.069520 -0.091406 -0.006815
		CHANNELS 3 Zrotation Yrotation Xrotation
		JOINT LeftLeg
		{
			OFFSET 0.034277 -0.375199 -0.004496
			CHANNELS 3 Zrotation Yrotation Xrotation
			JOINT LeftFoot
			{
				OFFSET -0.013596 -0.397961 -0.043693
				CHANNELS 3 Zrotation Yrotation Xrotation
				JOINT LeftToe
				{
					OFFSET 0.026358 -0.055791 0.119288
					CHANNELS 3 Zrotation Yrotation Xrotation
					End Site
					{
						OFFSET 0.000000 0.000000 0.000000
					}
				}
			}
		}
	}
	JOINT RightUpLeg
	{
		OFFSET -0.067670 -0.090522 -0.004320
		CHANNELS 3 Zrotation Yrotation Xrotation
		JOINT RightLeg
		{
			OFFSET -0.038290 -0.382569 -0.008850
			CHANNELS 3 Zrotation Yrotation Xrotation
			JOINT RightFoot
			{
				OFFSET 0.015774 -0.398415 -0.042312
				CHANNELS 3 Zrotation Yrotation Xrotation
				JOINT RightToe
				{
					OFFSET -0.025372 -0.048144 0.123348
					CHANNELS 3 Zrotation Yrotation Xrotation
					End Site
					{
						OFFSET 0.000000 0.000000 0.000000
					}
				}
			}
		}
	}
	JOINT Spine
	{
		OFFSET -0.002533 0.108963 -0.026696
		CHANNELS 3 Zrotation Yrotation Xrotation
		JOINT Spine1
		{
			OFFSET 0.005487 0.135180 0.001092
			CHANNELS 3 Zrotation Yrotation Xrotation
			JOINT Spine2
			{
				OFFSET 0.001457 0.052922 0.025425
				CHANNELS 3 Zrotation Yrotation Xrotation
				JOINT Neck
				{
					OFFSET -0.002778 0.213870 -0.042857
					CHANNELS 3 Zrotation Yrotation Xrotation
					JOINT Head
					{
						OFFSET 0.005152 0.064970 0.051349
						CHANNELS 3 Zrotation Yrotation Xrotation
						End Site
						{
							OFFSET 0.000000 0.000000 0.000000
						}
					}
				}
				JOINT LeftShoulder
				{
					OFFSET 0.078845 0.121749 -0.034090
					CHANNELS 3 Zrotation Yrotation Xrotation
					JOINT LeftArm
					{
						OFFSET 0.090977 0.030469 -0.008868
						CHANNELS 3 Zrotation Yrotation Xrotation
						JOINT LeftForeArm
						{
							OFFSET 0.259612 -0.012772 -0.027456
							CHANNELS 3 Zrotation Yrotation Xrotation
							JOINT LeftHand
							{
								OFFSET 0.249234 0.008986 -0.001171
								CHANNELS 3 Zrotation Yrotation Xrotation
								End Site
								{
									OFFSET 0.000000 0.000000 0.000000
								}
							}
						}
					}
				}
				JOINT RightShoulder
				{
					OFFSET -0.081759 0.118833 -0.038615
					CHANNELS 3 Zrotation Yrotation Xrotation
					JOINT RightArm
					{
						OFFSET -0.096012 0.032551 -0.009143
						CHANNELS 3 Zrotation Yrotation Xrotation
						JOINT RightForeArm
						{
							OFFSET -0.253742 -0.013329 -0.021401
							CHANNELS 3 Zrotation Yrotation Xrotation
							JOINT RightHand
							{
								OFFSET -0.255298 0.007772 -0.005559
								CHANNELS 3 Zrotation Yrotation Xrotation
								End Site
								{
									OFFSET 0.000000 0.000000 0.000000
								}
							}
						}
					}
				}
			}
		}
	}
}
MOTION
Frames: 16
Frame Time: 0.050000
0.046337 0.961268 3.035428 177.422086 33.679290 179.431179 -2.189493 -1.125870 -3.064130 -0.612442 -3.720582 -1.003675 -5.821692 -10.979305 19.393288 0.000000 0.000000 0.000000 -3.046409 -10.156689 -11.565310 -9.198006 -8.762692 16.208899 24.295489 -1.599659 13.189200 0.000000 0.000000 0.000000 2.310599 -0.404509 6.299722 -12.312720 -5.973639 -18.585965 5.655387 17.680569 27.266983 9.584793 -9.463525 -20.683372 0.000000 0.000000 0.000000 5.231984 -34.708647 -45.031200 -50.901011 30.384893 -24.221490 -31.091661 -19.038973 -3.228641 0.000000 0.000000 0.000000 14.340025 -15.440405 51.936066 59.043546 65.666810 44.226187 -25.494746 11.894709 -3.953683 0.000000 0.000000 0.000000 
0.054269 0.962385 3.043120 177.194454 31.909363 -179.318873 -2.586928 -0.998815 -4.527422 1.090237 -3.247250 -1.509997 -7.250053 -12.428308 20.197539 0.000000 0.000000 0.000000 -2.536120 -9.677610 -11.151730 -7.247940 -7.338385 12.910565 19.906334 -4.294698 12.403211 0.000000 0.000000 0.000000 2.430364 -0.413463 6.242081 -12.159562 -6.013147 -19.017658 5.699789 18.124214 25.966041 9.347130 -11.603885 -19.858392 0.000000 0.000000 0.000000 6.723278 -36.238550 -48.202757 -51.226179 33.370956 -26.453188 -32.913952 -16.995179 -3.735555 0.000000 0.000000 0.000000 13.201022 -15.978527 56.421610 55.840719 71.467939 46.992295 -27.974018 10.211567 -3.937323 0.000000 0.000000 0.000000 
0.063328 0.962731 3.049752 177.072044 30.476045 -178.748399 -2.352154 -1.089362 -5.095618 1.812976 -3.122708 -2.018144 -8.105887 -13.290568 20.755877 0.000000 0.000000 0.000000 -1.852444 -8.610047 -9.931070 -5.627317 -6.447855 10.219740 15.483373 -7.564631 10.398684 0.000000 0.000000 0.000000 2.749498 -0.447018 6.219365 -12.078983 -6.242007 -18.925355 6.104526 18.622400 24.809536 9.551943 -13.141874 -19.376038 0.000000 0.000000 0.000000 7.988862 -37.276962 -51.462620 -51.137653 36.151504 -28.072462 -34.115881 -15.134458 -4.226371 0.000000 0.000000 0.000000 11.693932 -16.101286 60.460925 48.021265 76.214595 45.143983 -30.626825 8.331428 -3.709314 0.000000 0.000000 0.000000 
0.073196 0.962855 3.055079 177.230456 29.871023 -178.170347 -1.775252 -1.254003 -5.662274 2.391631 -2.920215 -2.012773 -8.337800 -13.806292 20.936227 0.000000 0.000000 0.000000 -1.416406 -7.942436 -9.167870 -3.896345 -6.242501 8.358738 13.020333 -9.267965 9.732568 0.000000 0.000000 0.000000 3.454583 -0.538369 6.268122 -12.135219 -6.211790 -19.303009 6.491778 19.242529 24.200102 9.561134 -14.711452 -18.443592 0.000000 0.000000 0.000000 8.936104 -38.531272 -53.541529 -51.859768 38.796229 -30.176955 -35.120224 -13.716662 -4.680917 0.000000 0.000000 0.000000 9.960077 -16.007010 63.507944 40.901502 80.488285 43.899624 -33.173881 7.476855 -3.799269 0.000000 0.000000 0.000000 
0.083135 0.962787 3.059136 177.104865 28.636852 -178.432453 -1.086242 -1.474566 -6.158860 1.595538 -3.085052 -0.156515 -5.275035 -15.017412 19.292015 0.000000 0.000000 0.000000 -1.318982 -7.372248 -7.486710 -2.753984 -5.845593 6.324427 12.062441 -11.099631 9.292151 0.000000 0.000000 0.000000 3.847456 -0.659892 7.055279 -11.564811 -5.875664 -20.326660 6.581755 18.683981 24.119631 8.653284 -16.692480 -17.411653 0.000000 0.000000 0.000000 9.503879 -38.814836 -56.933298 -50.173161 42.851672 -30.682953 -38.217267 -12.190127 -5.374183 0.000000 0.000000 0.000000 8.952859 -15.996954 67.337756 12.599229 84.012676 20.793245 -35.134082 6.476153 -3.730550 0.000000 0.000000 0.000000 
0.092464 0.962354 3.062181 177.614563 27.762259 -178.115154 0.651348 -2.085353 -7.088373 -0.383076 -3.812209 2.364514 0.686363 -15.800327 16.550981 0.000000 0.000000 0.000000 -1.020719 -6.832970 -6.361202 -1.083125 -6.064286 4.641589 11.006169 -12.088850 9.539113 0.000000 0.000000 0.000000 4.645921 -0.878667 7.638951 -11.126330 -5.539077 -21.004353 6.737487 18.737905 23.920448 7.649835 -19.079626 -15.779898 0.000000 0.000000 0.000000 10.926295 -39.150179 -58.813176 -50.773118 45.801790 -33.584009 -40.441351 -11.560890 -6.292612 0.000000 0.000000 0.000000 7.838086 -16.025748 70.969501 -33.094253 84.113080 -19.779764 -35.587724 6.939118 -4.046372 0.000000 0.000000 0.000000 
0.100827 0.962424 3.064220 177.537779 26.683597 -178.652340 1.752325 -2.659193 -9.606984 -3.765785 -5.814285 8.433431 8.598947 -14.583876 15.366854 0.000000 0.000000 0.000000 -1.135399 -6.423004 -3.781391 0.299517 -5.541161 1.573620 10.257514 -13.784454 9.554503 0.000000 0.000000 0.000000 5.022706 -1.116741 8.705663 -11.222685 -5.750057 -21.515563 7.810301 19.035711 24.163006 7.976505 -19.563339 -16.459172 0.000000 0.000000 0.000000 12.514779 -39.447161 -62.087490 -49.832501 48.992326 -35.235183 -44.316750 -8.971923 -7.894441 0.000000 0.000000 0.000000 6.163973 -16.368732 75.440303 -62.231785 81.175116 -43.355737 -36.834703 5.591838 -3.684179 0.000000 0.000000 0.000000 
0.107654 0.961727 3.065246 177.487473 25.593318 -178.137111 2.888859 -4.045917 -14.418717 -9.153267 -9.624742 15.427445 17.380915 -10.932360 19.481896 0.000000 0.000000 0.000000 -1.294716 -6.408239 -2.613631 1.740851 -5.884916 -0.089051 12.404924 -14.662954 6.756267 0.000000 0.000000 0.000000 5.338366 -1.278966 9.048602 -10.203611 -4.998497 -22.266718 7.398560 18.790101 24.173366 6.662659 -21.987608 -15.102334 0.000000 0.000000 0.000000 14.675660 -38.700153 -64.876401 -50.894688 51.352795 -39.347388 -46.635560 -5.321365 -10.031230 0.000000 0.000000 0.000000 3.674904 -16.241471 80.630307 -81.759253 77.486251 -55.832983 -37.139781 2.414052 -2.888077 0.000000 0.000000 0.000000 
0.113141 0.959876 3.064517 176.869922 25.721041 -177.874787 4.402647 -6.151516 -19.018397 -18.809385 -14.797334 20.991050 33.691761 -10.188034 34.708576 0.000000 0.000000 0.000000 -1.736749 -6.703703 -2.007946 2.049489 -6.294838 0.224720 19.077189 -13.490225 0.544424 0.000000 0.000000 0.000000 4.937799 -1.300771 9.733705 -10.604186 -5.281345 -23.462914 9.303815 19.966378 25.126578 6.871574 -20.695598 -17.830309 0.000000 0.000000 0.000000 16.228788 -38.730581 -71.878761 -45.261166 57.659904 -37.407904 -49.565093 -2.438399 -11.866058 0.000000 0.000000 0.000000 1.192478 -16.668813 86.569003 -88.619716 72.542328 -55.555233 -37.324930 -1.796051 -1.593763 0.000000 0.000000 0.000000 
0.118405 0.958169 3.061062 176.496879 24.683882 -178.284486 6.352581 -8.745853 -23.121378 -28.410207 -19.344764 26.012225 39.796964 -14.815972 50.657994 0.000000 0.000000 0.000000 -1.705736 -6.790330 -1.434072 1.704633 -7.189610 1.933232 23.413626 -13.150852 -4.279247 0.000000 0.000000 0.000000 4.773405 -1.763624 11.645569 -9.579441 -4.429082 -25.747637 9.018798 19.998473 26.202346 4.550399 -23.548385 -17.130965 0.000000 0.000000 0.000000 18.495089 -36.707070 -79.887332 -41.168207 64.224091 -38.207321 -51.173286 3.663995 -14.832112 0.000000 0.000000 0.000000 -0.613195 -16.823757 94.962241 -95.667071 64.905761 -54.834141 -35.586598 -7.228600 -0.461890 0.000000 0.000000 0.000000 
0.123977 0.956482 3.053997 176.513134 23.775315 -178.703315 7.052086 -10.494281 -25.861467 -30.690051 -20.474673 25.410821 40.491106 -29.761827 65.922970 0.000000 0.000000 0.000000 -1.534737 -6.675788 0.578611 1.328710 -6.883877 1.382175 27.721945 -12.860052 -7.283654 0.000000 0.000000 0.000000 5.392011 -2.125757 12.165522 -10.065801 -5.179907 -23.226135 9.032929 21.552084 23.823317 5.340600 -22.729331 -18.142316 0.000000 0.000000 0.000000 19.633616 -35.421445 -82.015690 -36.580299 67.482658 -37.008284 -53.508954 6.229119 -17.387174 0.000000 0.000000 0.000000 -2.553839 -15.960876 97.060926 -97.841404 64.372879 -54.051507 -34.996679 -9.611056 -0.031621 0.000000 0.000000 0.000000 
0.130628 0.953833 3.042883 177.003260 23.600822 -178.388769 8.477785 -12.001985 -27.830279 -28.610716 -19.649860 20.562148 41.605326 -41.005899 70.996424 0.000000 0.000000 0.000000 -1.200983 -6.537728 2.893881 1.723153 -5.981538 -1.466385 28.753455 -13.339640 -7.527763 0.000000 0.000000 0.000000 6.354400 -2.380084 11.844326 -10.451603 -5.117620 -24.072659 10.393339 22.433294 25.337126 5.368553 -23.489648 -18.339928 0.000000 0.000000 0.000000 21.935246 -34.981395 -87.717140 -24.468974 73.264823 -30.946161 -55.490865 11.205760 -21.406322 0.000000 0.000000 0.000000 -5.730287 -16.627117 103.439362 -101.037558 59.621428 -48.158508 -34.338712 -16.017056 1.729225 0.000000 0.000000 0.000000 
0.138166 0.950377 3.027519 176.445864 24.882040 -178.055603 8.027298 -11.966868 -28.109475 -19.978773 -15.295799 11.751846 43.715258 -45.000435 64.980762 0.000000 0.000000 0.000000 -2.038840 -6.975882 2.835799 1.701376 -6.158839 -0.584991 30.486599 -11.473364 -8.571702 0.000000 0.000000 0.000000 6.101612 -1.932150 10.702495 -10.592724 -4.878354 -24.134386 9.839577 23.849463 25.654544 4.032657 -26.215495 -15.652298 0.000000 0.000000 0.000000 22.980288 -34.728321 -85.405654 -31.577756 73.364635 -39.801721 -55.254070 10.259588 -21.816127 0.000000 0.000000 0.000000 -7.153406 -15.872610 105.843256 -103.915697 58.354155 -47.825627 -34.157122 -18.534270 2.053122 0.000000 0.000000 0.000000 
0.146638 0.945526 3.007622 176.412027 24.820555 -178.553066 5.391850 -10.105808 -25.971178 -11.198264 -11.009720 2.675478 46.196689 -43.248967 53.408422 0.000000 0.000000 0.000000 -1.890210 -7.142236 5.196026 1.010450 -5.376872 -1.335254 32.095869 -11.843804 -10.695036 0.000000 0.000000 0.000000 5.253640 -1.665114 10.702917 -10.432981 -4.912323 -23.548942 9.750644 23.737893 25.791824 2.939612 -28.096183 -13.848125 0.000000 0.000000 0.000000 23.249898 -34.769934 -85.661706 -31.107732 75.020127 -40.352687 -56.213147 8.653606 -21.685306 0.000000 0.000000 0.000000 -6.886423 -16.087420 105.750278 -103.043214 58.270726 -47.728588 -33.774036 -18.335984 2.025768 0.000000 0.000000 0.000000 
0.155597 0.940037 2.982725 176.879955 25.274750 -178.133435 4.026710 -8.756743 -24.261246 -6.559986 -9.324676 -2.868056 44.297287 -35.289849 44.642062 0.000000 0.000000 0.000000 -2.491025 -7.575430 5.904741 1.720130 -6.540956 0.261956 34.536912 -9.709922 -11.776806 0.000000 0.000000 0.000000 4.939315 -1.612325 10.823989 -10.605552 -4.915653 -25.025634 10.024941 23.524468 27.125936 4.296992 -26.366945 -15.769765 0.000000 0.000000 0.000000 23.652457 -33.572511 -87.495965 -26.370224 77.659398 -37.839115 -54.481818 8.847667 -20.969872 0.000000 0.000000 0.000000 -6.679140 -16.234352 106.609725 -102.317839 59.116894 -49.112877 -35.735701 -17.778941 2.118224 0.000000 0.000000 0.000000 
0.164878 0.934137 2.952322 176.965340 27.031290 -177.405512 4.056738 -8.803570 -24.503062 -6.019551 -8.217723 -1.622858 42.399798 -31.805831 43.925546 0.000000 0.000000 0.000000 -3.757833 -8.203619 5.938759 1.803046 -7.539687 2.528495 37.175678 -6.340533 -11.735212 0.000000 0.000000 0.000000 4.120657 -1.123165 9.763784 -11.010323 -5.119067 -24.704085 10.079656 24.491884 26.976021 1.880517 -28.847772 -12.608168 0.000000 0.000000 0.000000 21.646447 -34.310416 -85.049243 -21.193432 76.580730 -30.532245 -53.666886 5.431762 -18.554525 0.000000 0.000000 0.000000 -2.395102 -17.188676 102.304434 -93.926045 63.451384 -52.523390 -37.006547 -11.771140 0.946178 0.000000 0.000000 0.000000 
